# Wavefront OBJ file automatically generated by Tiled2Unity

# Vertices (Count = 82)
v -208 -64 0
v -224 -64 0
v -224 -48 0
v -208 -48 0
v -192 -64 0
v -192 -48 0
v -176 -64 0
v -176 -48 0
v -160 -64 0
v -160 -48 0
v -144 -64 0
v -144 -48 0
v -128 -64 0
v -128 -48 0
v -112 -64 0
v -112 -48 0
v -96 -64 0
v -96 -48 0
v -80 -64 0
v -80 -48 0
v -208 -80 0
v -224 -80 0
v -192 -80 0
v -176 -80 0
v -160 -80 0
v -144 -80 0
v -128 -80 0
v -112 -80 0
v -96 -80 0
v -80 -80 0
v -208 -96 0
v -224 -96 0
v -192 -96 0
v -176 -96 0
v -160 -96 0
v -144 -96 0
v -128 -96 0
v -112 -96 0
v -96 -96 0
v -80 -96 0
v -208 -112 0
v -224 -112 0
v -192 -112 0
v -176 -112 0
v -160 -112 0
v -144 -112 0
v -128 -112 0
v -112 -112 0
v -96 -112 0
v -80 -112 0
v -208 -128 0
v -224 -128 0
v -192 -128 0
v -176 -128 0
v -160 -128 0
v -144 -128 0
v -128 -128 0
v -112 -128 0
v -96 -128 0
v -80 -128 0
v -208 -144 0
v -224 -144 0
v -192 -144 0
v -176 -144 0
v -160 -144 0
v -144 -144 0
v -128 -144 0
v -112 -144 0
v -96 -144 0
v -80 -144 0
v -208 -160 0
v -224 -160 0
v -192 -160 0
v -176 -160 0
v -160 -160 0
v -144 -160 0
v -128 -160 0
v -112 -160 0
v -96 -160 0
v -80 -160 0
v -144 -176 0
v -160 -176 0

# Texture cooridinates (Count = 100)
vt 0.2986758 0.5818712
vt 0.3149606 0.5818712
vt 0.3149606 0.6120452
vt 0.2986758 0.6120452
vt 0.2459898 0.5818712
vt 0.2622746 0.5818712
vt 0.2622746 0.6120452
vt 0.2459898 0.6120452
vt 0.2811138 0.5818712
vt 0.2973986 0.5818712
vt 0.2973986 0.6120452
vt 0.2811138 0.6120452
vt 0.2635518 0.5495517
vt 0.2798366 0.5495517
vt 0.2798366 0.5797259
vt 0.2635518 0.5797259
vt 0.1406179 0.9050651
vt 0.1569027 0.9050651
vt 0.1569027 0.9352391
vt 0.1406179 0.9352391
vt 0.3337997 0.2586772
vt 0.3500845 0.2586772
vt 0.3500845 0.2888513
vt 0.3337997 0.2888513
vt 0.2986758 0.2586772
vt 0.3149606 0.2586772
vt 0.3149606 0.2888513
vt 0.2986758 0.2888513
vt 0.4918576 0.9050651
vt 0.5081424 0.9050651
vt 0.5081424 0.9352391
vt 0.4918576 0.9352391
vt 0.2108659 0.7757875
vt 0.2271507 0.7757875
vt 0.2271507 0.8059616
vt 0.2108659 0.8059616
vt 0.2108659 0.8081068
vt 0.2271507 0.8081068
vt 0.2271507 0.838281
vt 0.2108659 0.838281
vt 0.2635518 0.9373844
vt 0.2798366 0.9373844
vt 0.2798366 0.9675586
vt 0.2635518 0.9675586
vt 0.1757419 0.7757875
vt 0.1920267 0.7757875
vt 0.1920267 0.8059616
vt 0.1757419 0.8059616
vt 0.1757419 0.8081068
vt 0.1920267 0.8081068
vt 0.1920267 0.838281
vt 0.1757419 0.838281
vt 0.2108659 0.5495517
vt 0.2271507 0.5495517
vt 0.2271507 0.5797259
vt 0.2108659 0.5797259
vt 0.1933039 0.5495517
vt 0.2095887 0.5495517
vt 0.2095887 0.5797259
vt 0.1933039 0.5797259
vt 0.1757419 0.5495517
vt 0.1920267 0.5495517
vt 0.1920267 0.5797259
vt 0.1757419 0.5797259
vt 0.2108659 0.5172323
vt 0.2271507 0.5172323
vt 0.2271507 0.5474064
vt 0.2108659 0.5474064
vt 0.1933039 0.5172323
vt 0.2095887 0.5172323
vt 0.2095887 0.5474064
vt 0.1933039 0.5474064
vt 0.1757419 0.5172323
vt 0.1920267 0.5172323
vt 0.1920267 0.5474064
vt 0.1757419 0.5474064
vt 0.4742956 0.8081068
vt 0.4905804 0.8081068
vt 0.4905804 0.838281
vt 0.4742956 0.838281
vt 0.4567336 0.8727456
vt 0.4730184 0.8727456
vt 0.4730184 0.9029198
vt 0.4567336 0.9029198
vt 0.3689237 0.8404263
vt 0.3852085 0.8404263
vt 0.3852085 0.8706003
vt 0.3689237 0.8706003
vt 0.2108659 0.4849129
vt 0.2271507 0.4849129
vt 0.2271507 0.5150871
vt 0.2108659 0.5150871
vt 0.1933039 0.4849129
vt 0.2095887 0.4849129
vt 0.2095887 0.5150871
vt 0.1933039 0.5150871
vt 0.1757419 0.4849129
vt 0.1920267 0.4849129
vt 0.1920267 0.5150871
vt 0.1757419 0.5150871

# Normal
vn 0 0 -1

# Groups (Count = 2)

g mesh_0001
f 1/1/1 2/2/1 3/3/1 4/4/1
f 5/5/1 1/6/1 4/7/1 6/8/1
f 7/5/1 5/6/1 6/7/1 8/8/1
f 9/5/1 7/6/1 8/7/1 10/8/1
f 11/5/1 9/6/1 10/7/1 12/8/1
f 13/5/1 11/6/1 12/7/1 14/8/1
f 15/5/1 13/6/1 14/7/1 16/8/1
f 17/5/1 15/6/1 16/7/1 18/8/1
f 19/9/1 17/10/1 18/11/1 20/12/1
f 21/13/1 22/14/1 2/15/1 1/16/1
f 23/17/1 21/18/1 1/19/1 5/20/1
f 24/17/1 23/18/1 5/19/1 7/20/1
f 25/17/1 24/18/1 7/19/1 9/20/1
f 26/17/1 25/18/1 9/19/1 11/20/1
f 27/17/1 26/18/1 11/19/1 13/20/1
f 28/17/1 27/18/1 13/19/1 15/20/1
f 29/17/1 28/18/1 15/19/1 17/20/1
f 30/13/1 29/14/1 17/15/1 19/16/1
f 31/13/1 32/14/1 22/15/1 21/16/1
f 33/17/1 31/18/1 21/19/1 23/20/1
f 34/17/1 33/18/1 23/19/1 24/20/1
f 35/17/1 34/18/1 24/19/1 25/20/1
f 36/17/1 35/18/1 25/19/1 26/20/1
f 37/17/1 36/18/1 26/19/1 27/20/1
f 38/17/1 37/18/1 27/19/1 28/20/1
f 39/17/1 38/18/1 28/19/1 29/20/1
f 40/13/1 39/14/1 29/15/1 30/16/1
f 41/13/1 42/14/1 32/15/1 31/16/1
f 43/17/1 41/18/1 31/19/1 33/20/1
f 44/17/1 43/18/1 33/19/1 34/20/1
f 45/17/1 44/18/1 34/19/1 35/20/1
f 46/17/1 45/18/1 35/19/1 36/20/1
f 47/17/1 46/18/1 36/19/1 37/20/1
f 48/17/1 47/18/1 37/19/1 38/20/1
f 49/17/1 48/18/1 38/19/1 39/20/1
f 50/13/1 49/14/1 39/15/1 40/16/1
f 51/13/1 52/14/1 42/15/1 41/16/1
f 53/17/1 51/18/1 41/19/1 43/20/1
f 54/17/1 53/18/1 43/19/1 44/20/1
f 55/17/1 54/18/1 44/19/1 45/20/1
f 56/17/1 55/18/1 45/19/1 46/20/1
f 57/17/1 56/18/1 46/19/1 47/20/1
f 58/17/1 57/18/1 47/19/1 48/20/1
f 59/17/1 58/18/1 48/19/1 49/20/1
f 60/13/1 59/14/1 49/15/1 50/16/1
f 61/21/1 62/22/1 52/23/1 51/24/1
f 63/17/1 61/18/1 51/19/1 53/20/1
f 64/17/1 63/18/1 53/19/1 54/20/1
f 65/17/1 64/18/1 54/19/1 55/20/1
f 66/17/1 65/18/1 55/19/1 56/20/1
f 67/17/1 66/18/1 56/19/1 57/20/1
f 68/17/1 67/18/1 57/19/1 58/20/1
f 69/17/1 68/18/1 58/19/1 59/20/1
f 70/25/1 69/26/1 59/27/1 60/28/1
f 71/21/1 72/22/1 62/23/1 61/24/1
f 73/17/1 71/18/1 61/19/1 63/20/1
f 74/17/1 73/18/1 63/19/1 64/20/1
f 75/17/1 74/18/1 64/19/1 65/20/1
f 76/17/1 75/18/1 65/19/1 66/20/1
f 77/17/1 76/18/1 66/19/1 67/20/1
f 78/17/1 77/18/1 67/19/1 68/20/1
f 79/17/1 78/18/1 68/19/1 69/20/1
f 80/25/1 79/26/1 69/27/1 70/28/1
f 81/17/1 82/18/1 75/19/1 76/20/1

g mesh_0002
f 26/29/1 25/30/1 9/31/1 11/32/1
f 28/33/1 27/34/1 13/35/1 15/36/1
f 29/37/1 28/38/1 15/39/1 17/40/1
f 33/41/1 31/42/1 21/43/1 23/44/1
f 38/45/1 37/46/1 27/47/1 28/48/1
f 39/49/1 38/50/1 28/51/1 29/52/1
f 43/53/1 41/54/1 31/55/1 33/56/1
f 44/57/1 43/58/1 33/59/1 34/60/1
f 45/61/1 44/62/1 34/63/1 35/64/1
f 53/65/1 51/66/1 41/67/1 43/68/1
f 54/69/1 53/70/1 43/71/1 44/72/1
f 55/73/1 54/74/1 44/75/1 45/76/1
f 57/77/1 56/78/1 46/79/1 47/80/1
f 58/81/1 57/82/1 47/83/1 48/84/1
f 59/85/1 58/86/1 48/87/1 49/88/1
f 63/89/1 61/90/1 51/91/1 53/92/1
f 64/93/1 63/94/1 53/95/1 54/96/1
f 65/97/1 64/98/1 54/99/1 55/100/1

